<svg xmlns="http://www.w3.org/2000/svg" xmlns:xlink="http://www.w3.org/1999/xlink" width="2000" zoomAndPan="magnify" viewBox="0 0 1500 1499.999933" height="2000" preserveAspectRatio="xMidYMid meet" version="1.0"><path fill="#FF4F00" d="M 1114.464844 1093.320312 L 902.367188 666.722656 C 839.917969 722.578125 784.960938 820.574219 788.027344 900.875 L 852.203125 1027.425781 C 854.507812 1031.96875 858.433594 1035.472656 863.210938 1037.246094 L 1089.253906 1121.335938 C 1106.46875 1127.742188 1122.644531 1109.769531 1114.464844 1093.320312 Z M 733.84375 860.191406 C 733.300781 860.992188 732.796875 861.84375 732.347656 862.757812 L 651.828125 1025.953125 C 649.539062 1030.585938 645.566406 1034.179688 640.71875 1035.984375 L 410.511719 1121.617188 C 393.394531 1127.992188 377.25 1110.242188 385.203125 1093.804688 L 726.917969 387.246094 C 734.253906 372.085938 755.8125 371.960938 763.3125 387.042969 L 895.113281 652.152344 C 822.84375 703.808594 766.253906 776.003906 733.84375 860.191406 " fill-opacity="1" fill-rule="nonzero"/></svg>
