<svg xmlns="http://www.w3.org/2000/svg" viewBox="0 0 180 180">
  <rect width="180" height="180" rx="36" fill="#050608"/>
  <path fill="#FF4F00" d="M134.455 137.82 96.63 61.712C85.5 71.665 75.71 89.132 76.256 103.45l11.444 22.558a4.6 4.6 0 0 0 1.962 1.753l40.306 14.993c3.07 1.142 5.955-2.061 4.487-4.985ZM66.589 96.652c-.336.475-.63.965-.877 1.593L51.355 127.35a4.567 4.567 0 0 1-2.022 2.244L8.296 144.861c-3.054 1.137-5.934-2.029-4.516-4.957L63.663 21.047c1.309-2.706 5.155-2.728 6.492-.037l23.504 47.287C80.767 77.503 70.673 90.369 65.13 105.543" transform="translate(20 18)"/>
</svg>
